<svg version="1.1" xmlns="http://www.w3.org/2000/svg">
  <symbol id="info" viewBox="0 0 1024 1024">
    <path d="M512 128a384 384 0 1 0 0 768 384 384 0 0 0 0-768zM42.666667 512C42.666667 252.8 252.8 42.666667 512 42.666667s469.333333 210.133333 469.333333 469.333333-210.133333 469.333333-469.333333 469.333333S42.666667 771.2 42.666667 512z" fill="currentColor"></path>
    <path d="M561.621333 394.752a42.666667 42.666667 0 0 1 14.08 37.205333l-34.986666 279.552 24.917333-6.229333a42.666667 42.666667 0 1 1 20.736 82.773333l-85.333333 21.333334a42.666667 42.666667 0 0 1-52.693334-46.677334l34.944-279.552-24.917333 6.229334a42.666667 42.666667 0 0 1-20.736-82.773334l85.333333-21.333333a42.666667 42.666667 0 0 1 38.656 9.472zM448 277.333333a42.666667 42.666667 0 0 1 42.666667-42.666666h42.666666a42.666667 42.666667 0 0 1 0 85.333333h-42.666666a42.666667 42.666667 0 0 1-42.666667-42.666667z" fill="currentColor"></path>
  </symbol>
  
  <symbol id="sidebar" viewBox="0 0 1024 1024">
    <path d="M811.99999971 962L212.00000029 962c-82.50000029 0-150.00000029-67.5-150.00000029-150.00000029L62 212.00000029c0-82.50000029 67.5-150.00000029 150.00000029-150.00000029l600.00000029 0c82.50000029 0 150.00000029 67.5 150.0000003 150.00000029l0 600.00000029C962 894.5 894.5 962 811.99999971 962zM212.00000029 136.99999971C170.74999971 136.99999971 136.99999971 170.74999971 136.99999971 212.00000029l0 600.00000029c0 41.24999971 33.75 74.99999971 74.99999971 74.99999971l600.00000029 0c41.24999971 0 74.99999971-33.75 74.99999971-74.99999971L887.00000029 212.00000029c0-41.24999971-33.75-74.99999971-74.99999971-74.99999971L212.00000029 136.99999971z" fill="currentColor"></path>
    <path d="M361.99999971 962c-22.5 0-37.50000029-15.00000029-37.5000003-37.50000029L324.50000029 99.50000029c0-22.5 15.00000029-37.50000029 37.5000003-37.50000029s37.50000029 15.00000029 37.50000029 37.50000029l0 825.00000029C399.5 946.99999971 384.49999971 962 361.99999971 962z" fill="currentColor"></path>
    <path d="M586.99999971 549.50000029c-11.25 0-18.74999971-3.75000029-26.2500003-11.25-15.00000029-15.00000029-15.00000029-37.50000029 1e-8-52.4999997l112.49999999-112.50000001c15.00000029-15.00000029 37.50000029-15.00000029 52.49999971 0s15.00000029 37.50000029 0 52.49999971l-112.5 112.5C605.75000029 545.75 598.24999971 549.50000029 586.99999971 549.50000029z" fill="currentColor"></path>
    <path d="M699.49999971 662.00000029c-11.25 0-18.74999971-3.75000029-26.2500003-11.25l-112.49999999-112.5c-15.00000029-15.00000029-15.00000029-37.50000029 0-52.4999997s37.50000029-15.00000029 52.4999997 0l112.5 112.49999999c15.00000029 15.00000029 15.00000029 37.50000029 0 52.49999971C718.25000029 658.25 710.74999971 662.00000029 699.49999971 662.00000029z" fill="currentColor"></path>
  </symbol>

  <symbol id="right" viewBox="0 0 1024 1024">
    <path d="M731.7 475.1L370.6 80.8c-19.7-21.5-53-22.9-74.4-3.3-21.5 19.7-22.9 53-3.3 74.4l328.6 358.8-328.3 359.8c-19.6 21.5-18.1 54.8 3.4 74.4 21.5 19.6 54.8 18.1 74.4-3.4l360.5-394.9c0.7-0.8 1.5-1.7 2.1-2.5 16.4-19.9 16.1-49.4-1.9-69z" fill="currentColor"></path>
  </symbol>
  
  <symbol id="globe" viewBox="0 0 1024 1024">
    <path d="M961.97275391 512.08525391c0-248.07832031-201.25634766-449.18613281-449.51923829-449.18613282C264.18623047 62.89912109 62.92548828 264.0078125 62.92548828 512.08525391c0 229.16425781 171.73037109 418.23105469 393.60673828 445.74257812 12.50859375 2.63671875 27.74267578 4.17216797 45.88769532 4.17216797 5.09414062 0 10.00634766-0.26806641 14.74980468-0.75322266 246.09023437-2.52949219 444.80302734-202.64765625 444.80302735-449.16152343z m-64.27705079 6.35537109c-1.29287109-22.41210938-4.25390625-44.34960938-8.76269531-65.67011719 0.40078125-7.61308594 0.50976563-14.82539063 0.30585938-21.5305664 5.57490234 26.06835938 8.51484375 53.1140625 8.51484375 80.8453125a383.15917969 383.15917969 0 0 1-0.05800782 6.35537109z m-770.55029296-6.35449219c0-27.22675781 2.83447266-53.78994141 8.2133789-79.41972656 16.63945313 17.79609375 55.85800781 17.37597656 65.42226563-9.21357422 17.11318359 10.19970703 40.11064453 12.05683594 40.11064453 32.44306641 0 67.28027344 2.39589844 139.41035156 63.52734375 140.52480468 1.72089844 0.02285156 34.09101563 12.26777344 49.49648437 52.22109376 5.32617188 13.809375 26.39619141 0 49.50175782 0 11.53476563 0 0 19.43261719 0 61.45488281 0 41.85878906 90.24609375 106.3125 90.24609375 106.3125-0.41748047 27.70751953 0.72070313 50.11259766 3.02607421 68.01240234-20.37041016-0.37529297-37.53808594 2.32470703-51.02490234 6.91523438C264.69951172 859.73486328 127.14453125 701.96943359 127.14453125 512.08525391z m480.1640625 373.25917969c-1.99775391-9.77958984-10.73583984-15.13476563-26.68007813-10.94414062 12.72128906-54.17578125 18.90615234-84.52441406 45.4640625-107.56669922 38.42578125-33.30966797 4.57558594-70.35117188-24.66474609-65.98564454-23.04667969 3.47958984-8.48232422-28.53544922-29.053125-30.30644531-20.56992187-1.72089844-47.43457031-42.6375-77.03876953-56.71582031-15.69287109-7.453125-31.11591797-27.42539062-55.31835938-28.32011719-21.45146484-0.83144531-52.80117188 18.13886719-52.80117187 3.515625 0-47.10146484-4.76982422-80.71171875-5.74980469-94.134375-0.79101563-10.78417969-7.04882813-3.63251953 21.94980469-2.93554687 15.78251953 0.42275391 8.07363281-31.70039062 23.6953125-32.95458985 15.3421875-1.21464844 51.90117187 14.36132813 61.21582031 8.15361329 8.65371094-5.78056641 63.60732422 144.25224609 63.60732422 24.80009765 0-14.17324219-7.33974609-38.81601563 0-52.23955078 29.03027344-53.04375 56.2078125-96.27451172 53.76708984-102.59824219-1.38427734-3.56044922-29.7-6.50039062-52.35644531 1.10126953-7.64560547 2.55322266 2.4328125 14.52832031-8.5491211 17.0859375-41.14511719 9.49921875-77.49755859-11.09355469-64.76748046-30.44970703 13.03505859-19.83691406 60.26660156-8.65371094 64.40800781-48.44970703 2.38183594-22.7953125 4.35585938-49.19589844 5.67773437-68.81748047 55.37460937 8.65986328 49.27851562-71.86552734-33.05917968-80.48496093 166.57558594 1.94853516 307.73056641 109.52578125 359.52802734 258.82646484-2.61914063-2.38974609-5.66806641-3.84169922-9.18808594-4.19677734-24.89414063-62.18261719-85.31894531-17.18085938-64.82109375 37.66552734-109.828125 84.42597656-81.71455078 143.30830078-45.63105469 177.02666016 18.98701172 17.72490234 37.08984375 44.38212891 48.87597657 63.52734375-12.82851562 37.40625 47.26933594 22.42792969 76.9078125-41.05371094-37.70068359 130.74873047-142.87236328 232.91982422-275.41845703 266.45097656z" fill="currentColor"></path>
  </symbol>

  <symbol id="moon" viewBox="0 0 1024 1024">
    <path d="M61.70666667 176.58666667m-27.76533334 0a27.76533333 27.76533333 0 1 0 55.53066667 0 27.76533333 27.76533333 0 1 0-55.53066667 0Z" fill="currentColor"></path>
    <path d="M110.29333333 72.02133333m-27.76533333 0a27.76533333 27.76533333 0 1 0 55.53066667 0 27.76533333 27.76533333 0 1 0-55.53066667 0Z" fill="currentColor"></path>
    <path d="M962.29333333 120.608m-27.76533333 0a27.76533333 27.76533333 0 1 0 55.53066667 0 27.76533333 27.76533333 0 1 0-55.53066667 0Z" fill="currentColor"></path>
    <path d="M619.65866667 168.32V173.67466667h0.544c2.58133333 16.27733333 16.576 28.75733333 33.57866666 28.75733333h209.29066667c17.00266667 0 30.98666667-12.48 33.57866667-28.75733333h0.53333333v-16.48c0-18.848-15.264-34.112-34.112-34.112H653.77066667c-18.83733333 0-34.12266667 15.27466667-34.12266667 34.112v11.12533333zM626.592 404.30933333V409.664h0.544c2.58133333 16.27733333 16.576 28.75733333 33.57866667 28.75733333h209.29066666c17.00266667 0 30.98666667-12.48 33.57866667-28.75733333h0.53333333v-16.48c0-18.848-15.264-34.112-34.112-34.112H660.71466667c-18.83733333 0-34.12266667 15.27466667-34.12266667 34.112v11.12533333z" fill="currentColor"></path>
    <path d="M640.27733333 425.376c0.01066667 0 0.01066667 0.01066667 0.032 0.02133333l3.46666667 4.032 0.416-0.352c12.576 10.66666667 31.31733333 10.99733333 44.21333333-0.096l190.432-232.01066666c12.896-11.08266667 15.36-29.664 6.69866667-43.70133334l0.40533333-0.34133333-3.488-4.064-6.21866666-7.22133333-1.03466667-1.20533334c-12.288-14.29333333-33.81333333-15.904-48.10666667-3.616L636.65066667 368.832c-14.28266667 12.27733333-15.904 33.83466667-3.616 48.11733333l1.03466666 1.20533334 6.208 7.22133333z" fill="currentColor"></path>
    <path d="M511.936 979.73333333c-248.59733333 0-450.83733333-202.29333333-450.83733333-450.93333333 0-203.104 136.98133333-381.92 333.13066666-434.82666667 14.10133333-3.75466667 29.06666667 1.41866667 37.77066667 13.16266667 8.68266667 11.744 9.29066667 27.60533333 1.51466667 39.968-33.52533333 53.36533333-51.24266667 114.61333333-51.24266667 177.12 0 184.096 149.84533333 333.888 334.048 333.888 62.64533333 0 123.968-17.78133333 177.36533333-51.44533333a35.4976 35.4976 0 0 1 39.98933334 1.46133333 35.49973333 35.49973333 0 0 1 13.19466666 37.76C894.03733333 842.45333333 715.18933333 979.73333333 511.936 979.73333333zM332.98133333 194.05866667C211.52 258.95466667 132.05333333 386.83733333 132.05333333 528.81066667c0 209.51466667 170.41066667 379.968 379.872 379.968 142.13333333 0 270.09066667-79.70133333 334.93333334-201.51466667a401.88266667 401.88266667 0 0 1-130.54933334 21.80266667c-223.31733333 0-405.01333333-181.61066667-405.01333333-404.832 0.01066667-44.29866667 7.328-88.27733333 21.68533333-130.176z m0 0" fill="currentColor"></path>
  </symbol>
  
  <symbol id="sun" viewBox="0 0 1024 1024">
   <path d="M512.00019969 719.51890344c-114.43928437 0-207.51870281-93.07941844-207.51870282-207.51870375S397.56091531 304.48149688 512.00019969 304.48149688 719.51890344 397.56091531 719.51890344 512.00019969 626.39948469 719.51890344 512.00019969 719.51890344z m0-335.03790656A127.63920187 127.63920187 0 0 0 384.48099687 512.00019969 127.63920187 127.63920187 0 0 0 512.00019969 639.51940344 127.63920187 127.63920187 0 0 0 639.51940344 512.00019969 127.63920187 127.63920187 0 0 0 512.00019969 384.48099687zM551.99994969 193.00219344A39.51975281 39.51975281 0 0 1 512.00019969 232.00194969c-22.07986219 0-39.99975-17.47989094-39.99975-38.99975625V71.00295594A39.51975281 39.51975281 0 0 1 512.00019969 32.00319969c22.07986219 0 39.99975 17.47989094 39.99975 38.99975625v121.9992375zM551.99994969 952.99744344A39.51975281 39.51975281 0 0 1 512.00019969 991.99719969c-22.11986156 0-39.99975-17.51989031-39.99975-38.99975625v-122.03923688A39.47975344 39.47975344 0 0 1 512.00019969 791.99844969c22.07986219 0 39.99975 17.43989063 39.99975 38.99975625v121.9992375zM193.00219344 472.00044969c21.51986531 0 38.99975625 17.91988781 38.99975625 39.99975 0 22.11986156-17.47989094 39.99975-38.99975625 39.99975H71.00295594A39.51975281 39.51975281 0 0 1 32.00319969 512.00019969c0-22.07986219 17.47989094-39.99975 38.99975625-39.99975h121.9992375zM952.99744344 472.00044969c21.51986531 0 38.99975625 17.91988781 38.99975625 39.99975 0 22.11986156-17.51989031 39.99975-38.99975625 39.99975h-122.03923688A39.47975344 39.47975344 0 0 1 791.99844969 512.00019969c0-22.07986219 17.43989063-39.99975 38.99975625-39.99975h121.9992375zM258.16178656 709.27896688a39.43975313 39.43975313 0 0 1 55.83965063 0.71999531 39.47975344 39.47975344 0 0 1 0.71999625 55.83965156l-86.27946094 86.31946031a39.51975281 39.51975281 0 0 1-55.83965156-0.799995 39.51975281 39.51975281 0 0 1-0.71999532-55.83965062l86.27946094-86.23946156zM795.55842781 171.88232562a39.51975281 39.51975281 0 0 1 55.83965063 0.71999532 39.51975281 39.51975281 0 0 1 0.71999625 55.83965156l-86.27946094 86.27946094a39.43975313 39.43975313 0 0 1-55.83965156-0.71999625 39.47975344 39.47975344 0 0 1-0.75999469-55.83965063l86.31946031-86.27946094zM258.16178656 314.68143312a39.55975313 39.55975313 0 0 0 55.87965094-0.67999593 39.47975344 39.47975344 0 0 0 0.71999531-55.83965063L228.4419725 171.80232594a39.51975281 39.51975281 0 0 0-55.83965156 0.799995 39.47975344 39.47975344 0 0 0-0.71999532 55.83965156l86.27946094 86.23946062zM795.55842781 852.11807469a39.47975344 39.47975344 0 0 0 55.83965063-0.75999563 39.51975281 39.51975281 0 0 0 0.71999625-55.83965062l-86.27946094-86.27946094a39.43975313 39.43975313 0 0 0-55.83965156 0.71999531 39.47975344 39.47975344 0 0 0-0.75999469 55.83965063l86.31946031 86.31946125z" fill="currentColor"></path>
  </symbol>
  
  <symbol id="settings" viewBox="0 0 1024 1024">
    <path d="M513.06666667 324.26666667c-103.68213333 0-187.73333333 84.0512-187.73333334 187.73333333s84.0512 187.73333333 187.73333334 187.73333333 187.73333333-84.0512 187.73333333-187.73333333-84.0512-187.73333333-187.73333333-187.73333333zM402.13333333 512c0-61.2672 49.66613333-110.93333333 110.93333334-110.93333333s110.93333333 49.66613333 110.93333333 110.93333333-49.66613333 110.93333333-110.93333333 110.93333333-110.93333333-49.66613333-110.93333334-110.93333333z" fill="currentColor"></path>
    <path d="M435.00373333 74.50773333c-9.2064-18.08213333-29.87413333-27.17866667-49.42613333-21.75573333-74.73706667 20.73066667-142.04266667 59.20106667-197.14133333 110.53653333-13.7696 12.82986667-17.5072 33.16693333-9.19786667 50.0544 5.73226667 11.648 8.97493333 24.78293333 8.97493333 38.80106667 0 48.592-39.28853333 87.8368-87.57333333 87.8368-0.4064 0-0.8128-0.0032-1.21813333-0.00853333-18.8704-0.26986667-35.67786667 11.89013333-41.32266667 29.89973333C43.90293333 415.15626667 36.26666667 463.30026667 36.26666667 513.14986667c0 32.90026667 3.32586667 65.06773333 9.67466666 96.1664 4.37333333 21.4208 24.22826667 36.0704 45.98506667 33.92853333a88.60693333 88.60693333 0 0 1 8.7136-0.4256c48.2848 0 87.57333333 39.24373333 87.57333333 87.83573333 0 21.62773333-7.7376 41.32266667-20.62293333 56.62506667-14.05546667 16.69226667-13.2512 41.2992 1.86453333 57.0368 56.25813333 58.57706667 127.3632 102.8448 207.3344 126.70293333 22.28053333 6.6464 45.7792-5.76853333 52.84586667-27.91893333 11.32373333-35.49333333 44.49493333-61.02613333 83.43146667-61.02613333s72.10773333 25.5328 83.43146666 61.02613333c7.06666667 22.1504 30.56533333 34.56533333 52.84586667 27.91893333 79.9712-23.85813333 151.07626667-68.12586667 207.3344-126.70293333 15.11466667-15.73866667 15.91893333-40.34453333 1.86453333-57.03573333-12.88533333-15.3024-20.62293333-34.9984-20.62293333-56.62613334 0-48.59093333 39.2896-87.83573333 87.57333333-87.83573333 2.95786667 0 5.8624 0.144 8.7136 0.4256 21.7568 2.14186667 41.61173333-12.50773333 45.98506667-33.92853333 6.34773333-31.09866667 9.67466667-63.26613333 9.67466667-96.1664 0-49.8496-7.63733333-97.9936-21.83253334-143.27786667-5.6448-18.0096-22.45226667-30.17066667-41.32373333-29.89973333-0.40426667 0.00533333-0.81066667 0.00853333-1.21706667 0.00853333-48.28373333 0-87.57333333-39.2448-87.57333333-87.8368 0-14.01813333 3.24266667-27.15306667 8.97493333-38.80106667 8.30933333-16.88746667 4.57173333-37.22453333-9.19786666-50.0544-55.09866667-51.33546667-122.40426667-89.80586667-197.14133334-110.53653333-19.552-5.42293333-40.21973333 3.6736-49.42613333 21.75573333-14.55786667 28.59306667-44.11413333 47.968-78.06293333 47.968-33.9488 0-63.50506667-19.37493333-78.06293334-47.968zM273.54666667 252.144c0-15.43573333-2.02666667-30.43733333-5.83466667-44.73173333 33.18826667-26.79253333 70.80213333-48.24746667 111.54773333-63.09973334 31.66506667 38.704 79.808 63.49653333 133.80693334 63.49653334 53.99893333 0 102.14186667-24.79253333 133.80693333-63.49653334 40.7456 14.85226667 78.35946667 36.3072 111.54773333 63.09973334a173.59786667 173.59786667 0 0 0-5.83466666 44.73173333c0 84.81386667 60.92053333 155.49013333 141.44426666 170.31146667 6.86293333 29.0784 10.5024 59.43786667 10.5024 90.6944 0 15.55306667-0.90133333 30.88106667-2.65066666 45.936-84.38293333 11.53493333-149.296 84.02026667-149.296 171.56906666 0 27.90613333 6.6144 54.3168 18.3488 77.696-32.88426667 28.88106667-70.61013333 52.31253333-111.77173334 68.91946667-30.63146667-48.35946667-84.55573333-80.52906667-146.09706666-80.52906667-61.54133333 0-115.4656 32.1696-146.09706667 80.52906667-41.1616-16.60693333-78.88746667-40.0384-111.7728-68.91946667 11.73546667-23.3792 18.34986667-49.78986667 18.34986667-77.696 0-87.5488-64.91306667-160.03413333-149.296-171.56906666A397.87413333 397.87413333 0 0 1 121.6 513.14986667c0-31.2576 3.6384-61.616 10.50133333-90.6944 80.5248-14.82026667 141.44533333-85.4976 141.44533334-170.31146667z" fill="currentColor"></path>
  </symbol>

  <symbol id="download" viewBox="0 0 1024 1024">
    <path d="M853.333333 853.333333a42.666667 42.666667 0 0 1 0 85.333334H170.666667a42.666667 42.666667 0 0 1 0-85.333334h682.666666zM512 85.504a42.666667 42.666667 0 0 1 42.666667 42.666667v515.370666l204.373333-204.373333a42.666667 42.666667 0 0 1 63.914667 56.277333l-3.584 4.010667-277.376 277.546667a42.666667 42.666667 0 0 1-56.32 3.584l-4.010667-3.541334-277.12-276.650666a42.666667 42.666667 0 0 1 56.234667-63.957334l4.010666 3.541334L469.333333 644.096V128.170667a42.666667 42.666667 0 0 1 42.666667-42.666667z" fill="currentColor"></path>
  </symbol>
  
  <symbol id="close" viewBox="0 0 1030 1024">
    <path d="M572.51749877 511.95611369L847.72143061 237.02863027a42.36564822 42.36564822 0 1 0-60.05831659-60.0583166L512.39007008 451.89779712 237.11702613 176.90120157a42.36564822 42.36564822 0 0 0-60.0583166 0c-16.58687676 16.58687676-16.58687676 43.54055193 0 60.05831658L452.26264138 511.8870016 177.05870953 786.95270991a42.36564822 42.36564822 0 0 0 30.06371436 72.42936188 42.15831192 42.15831192 0 0 0 29.99460224-12.44015739L512.39007008 572.01443028l275.27304394 275.06570831a42.15831192 42.15831192 0 0 0 60.05831659 1e-8c16.58687676-16.58687676 16.58687676-43.54055193 0-60.05831658L572.51749877 511.95611369z" fill="currentColor"></path>
  </symbol>
  
  <symbol id="correct" viewBox="0 0 1024 1024">
    <path d="M409.6 800.768c-15.01866667 0-30.03733333-5.46133333-40.96-17.06666667L100.352 515.41333333c-19.79733333-19.79733333-19.79733333-52.56533333 0-72.36266666s52.56533333-19.79733333 72.36266667 0l236.88533333 236.88533333 441.68533333-441.68533333c19.79733333-19.79733333 52.56533333-19.79733333 72.36266667 0s19.79733333 52.56533333 0 72.36266666L450.56 783.70133333c-10.92266667 11.60533333-25.94133333 17.06666667-40.96 17.06666667z" fill="currentColor"></path>
  </symbol>

   <symbol id="github" viewBox="0 0 1024 1024">
    <path d="M960 512c0 97.76-28.704 185.216-85.664 263.264-56.96 78.016-130.496 131.84-220.64 161.856-10.304 1.824-18.368 0.448-22.848-4.032a22.4 22.4 0 0 1-7.2-17.504v-122.88c0-37.632-10.304-65.44-30.464-82.912a409.856 409.856 0 0 0 59.616-10.368 222.752 222.752 0 0 0 54.72-22.816c18.848-10.784 34.528-23.36 47.104-38.592 12.544-15.232 22.848-35.904 30.912-61.44 8.096-25.568 12.128-54.688 12.128-87.904 0-47.072-15.232-86.976-46.208-120.16 14.368-35.456 13.024-74.912-4.48-118.848-10.752-3.616-26.432-1.344-47.072 6.272s-38.56 16.16-53.824 25.568l-21.984 13.888c-36.32-10.304-73.536-15.232-112.096-15.232s-75.776 4.928-112.096 15.232a444.48 444.48 0 0 0-24.672-15.68c-10.336-6.272-26.464-13.888-48.896-22.432-21.952-8.96-39.008-11.232-50.24-8.064-17.024 43.936-18.368 83.424-4.032 118.848-30.496 33.632-46.176 73.536-46.176 120.608 0 33.216 4.032 62.336 12.128 87.456 8.032 25.12 18.368 45.76 30.496 61.44 12.544 15.68 28.224 28.704 47.072 39.04 18.848 10.304 37.216 17.92 54.72 22.816a409.6 409.6 0 0 0 59.648 10.368c-15.712 13.856-25.12 34.048-28.704 60.064a99.744 99.744 0 0 1-26.464 8.512 178.208 178.208 0 0 1-33.184 2.688c-13.024 0-25.568-4.032-38.144-12.544-12.544-8.512-23.296-20.64-32.256-36.32a97.472 97.472 0 0 0-28.256-30.496c-11.232-8.064-21.088-12.576-28.704-13.92l-11.648-1.792c-8.096 0-13.92 0.928-17.056 2.688-3.136 1.792-4.032 4.032-2.688 6.72s3.136 5.408 5.376 8.096 4.928 4.928 7.616 7.168l4.032 2.688c8.544 4.032 17.056 11.232 25.568 21.984 8.544 10.752 14.368 20.64 18.4 29.6l5.824 13.44c4.928 14.816 13.44 26.912 25.568 35.872 12.096 8.992 25.088 14.816 39.008 17.504 13.888 2.688 27.36 4.032 40.352 4.032s23.776-0.448 32.288-2.24l13.472-2.24c0 14.784 0 32.288 0.416 52.032 0 19.744 0.48 30.496 0.48 31.392a22.624 22.624 0 0 1-7.648 17.472c-4.928 4.48-12.992 5.824-23.296 4.032-90.144-30.048-163.68-83.84-220.64-161.888C92.256 697.216 64 609.312 64 512c0-81.152 20.192-156.064 60.096-224.672s94.176-122.88 163.232-163.232C355.936 84.192 430.816 64 512 64s156.064 20.192 224.672 60.096 122.88 94.176 163.232 163.232C939.808 355.488 960 430.848 960 512" fill="currentColor"></path>
  </symbol>

  <symbol id="pc" viewBox="0 0 1024 1024">
    <path d="M959.92 182.88a70 70 0 0 0-70-70h-756a70 70 0 0 0-70 70L64 669.13a70 70 0 0 0 70 70h338v92H328a40 40 0 0 0-40 40 40 40 0 0 0 40 40h368a40 40 0 0 0 40-40 40 40 0 0 0-40-40H552v-92h338a70 70 0 0 0 70-70z m-776 10h656a40 40 0 0 1 40 40l0.08 282.25H144l-0.06-282.25a40 40 0 0 1 39.98-40zM840 659.13H184a40 40 0 0 1-40-40v-24h736v24a40 40 0 0 1-40 40z" fill="currentColor"></path>
  </symbol>
</svg>